HIERARCHY
ROOT Hips
{
  OFFSET 53.8308 93.9269 12.0199
  CHANNELS 6 Xposition Yposition Zposition Zrotation Xrotation Yrotation
  JOINT spine
  {
    OFFSET 0 7.80059 0.448573
    CHANNELS 3 Zrotation Xrotation Yrotation
    JOINT spine1
    {
      OFFSET 0 10.1364 0
      CHANNELS 3 Zrotation Xrotation Yrotation
      JOINT spine2
      {
        OFFSET 0 9.71251 0
        CHANNELS 3 Zrotation Xrotation Yrotation
        JOINT Neck
        {
          OFFSET 0 24.9361 1.18887
          CHANNELS 3 Zrotation Xrotation Yrotation
          JOINT Head
          {
            OFFSET 0 7.53384 0
            CHANNELS 3 Zrotation Xrotation Yrotation
            End Site
            {
              OFFSET 0 18.2361 -6.01402
            }
          }
        }
        JOINT RightShoulder
        {
          OFFSET -4.08965 10.4888 -0.569457
          CHANNELS 3 Zrotation Xrotation Yrotation
          JOINT RightArm
          {
            OFFSET 0 13.757 0
            CHANNELS 3 Zrotation Xrotation Yrotation
            JOINT RightArmRoll
            {
              OFFSET 0 6.94478 0
              CHANNELS 3 Zrotation Xrotation Yrotation
              JOINT RightForeArm
              {
                OFFSET 0 20.2277 0
                CHANNELS 3 Zrotation Xrotation Yrotation
                JOINT RightForeArmRoll
                {
                  OFFSET 0 7.79312 0
                  CHANNELS 3 Zrotation Xrotation Yrotation
                  JOINT RightHand
                  {
                    OFFSET 0 15.6391 0
                    CHANNELS 3 Zrotation Xrotation Yrotation
                    End Site
                    {
                      OFFSET 0 0 0
                    }
                  }
                }
              }
            }
          }
        }
        JOINT LeftShoulder
        {
          OFFSET 4.08965 10.4888 -0.569457
          CHANNELS 3 Zrotation Xrotation Yrotation
          JOINT LeftArm
          {
            OFFSET 0 13.757 0
            CHANNELS 3 Zrotation Xrotation Yrotation
            JOINT LeftArmRoll
            {
              OFFSET 0 6.94478 0
              CHANNELS 3 Zrotation Xrotation Yrotation
              JOINT LeftForeArm
              {
                OFFSET 0 20.2277 0
                CHANNELS 3 Zrotation Xrotation Yrotation
                JOINT LeftForeArmRoll
                {
                  OFFSET 0 7.79312 0
                  CHANNELS 3 Zrotation Xrotation Yrotation
                  JOINT LeftHand
                  {
                    OFFSET 0 15.6391 0
                    CHANNELS 3 Zrotation Xrotation Yrotation
                    End Site
                    {
                      OFFSET 0 0 0
                    }
                  }
                }
              }
            }
          }
        }
      }
    }
  }
  JOINT RightUpLeg
  {
    OFFSET -6.91415 -1.26788 -1.06358
    CHANNELS 3 Zrotation Xrotation Yrotation
    JOINT RightUpLegRoll
    {
      OFFSET 0 18.3378 0
      CHANNELS 3 Zrotation Xrotation Yrotation
      JOINT RightLeg
      {
        OFFSET 0 -22.7085 0
        CHANNELS 3 Zrotation Xrotation Yrotation
        JOINT RightLegRoll
        {
          OFFSET 0 22.7828 0
          CHANNELS 3 Zrotation Xrotation Yrotation
          JOINT RightFoot
          {
            OFFSET 0 18.9629 0
            CHANNELS 3 Zrotation Xrotation Yrotation
            JOINT RightToeBase
            {
              OFFSET 0 15.852 0
              CHANNELS 3 Zrotation Xrotation Yrotation
              End Site
              {
                OFFSET 0.00671906 7.67701 -0.884893
              }
            }
          }
        }
      }
    }
  }
  JOINT LeftUpLeg
  {
    OFFSET 6.91415 -1.26788 -1.06358
    CHANNELS 3 Zrotation Xrotation Yrotation
    JOINT LeftUpLegRoll
    {
      OFFSET 0 18.3379 0
      CHANNELS 3 Zrotation Xrotation Yrotation
      JOINT LeftLeg
      {
        OFFSET 0 22.7084 0
        CHANNELS 3 Zrotation Xrotation Yrotation
        JOINT LeftLegRoll
        {
          OFFSET 0 22.9934 0
          CHANNELS 3 Zrotation Xrotation Yrotation
          JOINT LeftFoot
          {
            OFFSET 0 18.7522 0
            CHANNELS 3 Zrotation Xrotation Yrotation
            JOINT LeftToeBase
            {
              OFFSET 0 15.852 0
              CHANNELS 3 Zrotation Xrotation Yrotation
              End Site
              {
                OFFSET -0.030112 7.67701 -0.884892
              }
            }
          }
        }
      }
    }
  }
}
MOTION
Frames: 4
Frame Time: 0.00208333
53.7938 93.9669 13.6366 0.39152 -7.35125 0.279715 -0.307401 -2.19088 0.364431 -0.60477 -0.382171 0.742809 -0.613767 1.26279 0.755107 -4.19717 35.2697 -0.781677 7.91528 -8.65078 -1.25944 26.3526 -14.5576 -11.2433 -7.33333 54.7067 102.666 -9.54166e-015 -2.98177e-015 -4.77083e-015 13.8231 78.1821 -10.018 7.37663e-006 7.86814e-007 -3.00758 8.02957 -4.95141 0.697652 -26.886 -14.4421 11.0653 -4.52347 51.2408 -97.9365 -1.2919e-006 1.6834e-007 -4.97112e-006 15.6199 80.4495 -21.0885 1.38133e-006 -1.32171e-006 3 -8.03011 -4.95137 -0.697629 173.781 -2.52806 1.70321 180 7.01583e-015 179.095 -179.882 12.7555 179.035 2.33264e-006 -6.37954e-006 0.0190697 -16.3838 71.0081 21.9859 8.13654 25.2334 -3.48681 -177.69 -5.81625 5.88065 4.54188e-006 -4.6773e-006 -1.36033 -3.73571 -10.467 -0.0300522 -1.84517e-006 -2.56875e-006 -0.159805 22.7852 72.3093 -23.9865 -8.13649 25.2327 3.48016 
53.7947 93.9646 13.6424 0.399032 -7.36218 0.283688 -0.310225 -2.19001 0.364316 -0.610426 -0.38033 0.743801 -0.619434 1.26463 0.75666 -4.14714 35.3614 -0.811402 7.87297 -8.7456 -1.27038 26.3431 -14.5582 -11.2447 -7.67601 54.6604 102.814 -3.18055e-015 -9.93923e-016 -2.38542e-015 14.1933 78.4123 -10.3715 7.37663e-006 7.86814e-007 -3.00758 8.02957 -4.95141 0.697652 -26.8576 -14.4223 11.0451 -4.22811 51.2403 -98.0628 -1.2919e-006 1.6834e-007 -4.97112e-006 15.6595 80.6336 -21.1546 1.38133e-006 -1.32171e-006 3 -8.03011 -4.95137 -0.697629 173.772 -2.5383 1.70832 180 7.01583e-015 179.095 -179.882 12.7627 179.034 2.33264e-006 -6.37954e-006 0.0191262 -16.3856 71.0138 21.9911 8.13654 25.2334 -3.48681 -177.697 -5.83541 5.88359 4.54188e-006 -4.6773e-006 -1.36055 -3.7364 -10.454 -0.0299813 -1.84517e-006 -2.56875e-006 -0.159751 22.7818 72.3048 -23.9801 -8.13649 25.2327 3.48016 
53.8026 93.9503 13.6673 0.406595 -7.37307 0.287807 -0.313025 -2.18916 0.3642 -0.616019 -0.378497 0.744815 -0.625039 1.26646 0.758234 -4.09696 35.4526 -0.841298 7.82967 -8.84015 -1.28158 26.3345 -14.5586 -11.246 -8.0131 54.6125 102.96 -6.36111e-015 -2.98177e-015 3.97569e-016 14.5603 78.6334 -10.7231 7.37663e-006 7.86814e-007 -3.00758 8.02957 -4.95141 0.697652 -26.8318 -14.4018 11.0239 -3.93936 51.2362 -98.1802 -1.2919e-006 1.6834e-007 -4.97112e-006 15.6952 80.8199 -21.2163 1.38133e-006 -1.32171e-006 3 -8.03011 -4.95137 -0.697629 173.763 -2.54857 1.71341 180 7.01583e-015 179.095 -179.881 12.77 179.033 2.33264e-006 -6.37954e-006 0.0191829 -16.3874 71.0196 21.9964 8.13654 25.2334 -3.48681 -177.705 -5.85455 5.88648 4.54188e-006 -4.6773e-006 -1.36076 -3.73713 -10.4408 -0.0299168 -1.84517e-006 -2.56875e-006 -0.159692 22.7782 72.3001 -23.9737 -8.13649 25.2327 3.48016 
53.8031 93.9556 13.6626 0.414145 -7.38385 0.292004 -0.315772 -2.18833 0.364086 -0.62149 -0.376691 0.745836 -0.630523 1.26827 0.759806 -4.0476 35.5424 -0.870705 7.78643 -8.9331 -1.29269 26.3263 -14.5591 -11.2472 -8.34364 54.5635 103.102 -1.51728e-032 -1.98785e-016 -4.37326e-015 14.9239 78.8456 -11.0726 7.37663e-006 7.86814e-007 -3.00758 8.02957 -4.95141 0.697652 -26.8085 -14.3808 11.002 -3.65754 51.2292 -98.2903 -1.2919e-006 1.6834e-007 -4.97112e-006 15.727 81.0107 -21.2743 1.38133e-006 -1.32171e-006 3 -8.03011 -4.95137 -0.697629 173.754 -2.55884 1.71849 180 7.01583e-015 179.094 -179.881 12.7771 179.032 2.33264e-006 -6.37954e-006 0.0192399 -16.3892 71.0254 22.0017 8.13654 25.2334 -3.48681 -177.712 -5.87362 5.88928 4.54188e-006 -4.6773e-006 -1.36097 -3.73792 -10.4275 -0.0298637 -1.84517e-006 -2.56875e-006 -0.159626 22.7745 72.2954 -23.9671 -8.13649 25.2327 3.48016 
